<mxfile host="app.diagrams.net" agent="Mozilla/5.0 (Windows NT 10.0; Win64; x64) AppleWebKit/537.36 (KHTML, like Gecko) Chrome/131.0.0.0 Safari/537.36" version="25.0.3">
  <diagram name="Page-1" id="zKMNSEg8gXN8D631Liza">
    <mxGraphModel dx="1050" dy="522" grid="1" gridSize="10" guides="1" tooltips="1" connect="1" arrows="1" fold="1" page="1" pageScale="1" pageWidth="850" pageHeight="1100" math="0" shadow="0">
      <root>
        <mxCell id="0" />
        <mxCell id="1" parent="0" />
        <mxCell id="jBbVbqIC1WBpsB8egaU1-1" value="C:Customer" style="shape=umlLifeline;perimeter=lifelinePerimeter;whiteSpace=wrap;html=1;container=1;dropTarget=0;collapsible=0;recursiveResize=0;outlineConnect=0;portConstraint=eastwest;newEdgeStyle={&quot;edgeStyle&quot;:&quot;elbowEdgeStyle&quot;,&quot;elbow&quot;:&quot;vertical&quot;,&quot;curved&quot;:0,&quot;rounded&quot;:0};" parent="1" vertex="1">
          <mxGeometry x="10" y="40" width="140" height="560" as="geometry" />
        </mxCell>
        <mxCell id="jBbVbqIC1WBpsB8egaU1-7" value="" style="html=1;points=[[0,0,0,0,5],[0,1,0,0,-5],[1,0,0,0,5],[1,1,0,0,-5]];perimeter=orthogonalPerimeter;outlineConnect=0;targetShapes=umlLifeline;portConstraint=eastwest;newEdgeStyle={&quot;curved&quot;:0,&quot;rounded&quot;:0};" parent="jBbVbqIC1WBpsB8egaU1-1" vertex="1">
          <mxGeometry x="65" y="60" width="10" height="430" as="geometry" />
        </mxCell>
        <mxCell id="jBbVbqIC1WBpsB8egaU1-2" value="A:Account" style="shape=umlLifeline;perimeter=lifelinePerimeter;whiteSpace=wrap;html=1;container=1;dropTarget=0;collapsible=0;recursiveResize=0;outlineConnect=0;portConstraint=eastwest;newEdgeStyle={&quot;edgeStyle&quot;:&quot;elbowEdgeStyle&quot;,&quot;elbow&quot;:&quot;vertical&quot;,&quot;curved&quot;:0,&quot;rounded&quot;:0};" parent="1" vertex="1">
          <mxGeometry x="200" y="40" width="140" height="560" as="geometry" />
        </mxCell>
        <mxCell id="jBbVbqIC1WBpsB8egaU1-11" value="" style="html=1;points=[[0,0,0,0,5],[0,1,0,0,-5],[1,0,0,0,5],[1,1,0,0,-5]];perimeter=orthogonalPerimeter;outlineConnect=0;targetShapes=umlLifeline;portConstraint=eastwest;newEdgeStyle={&quot;curved&quot;:0,&quot;rounded&quot;:0};" parent="jBbVbqIC1WBpsB8egaU1-2" vertex="1">
          <mxGeometry x="65" y="100" width="10" height="20" as="geometry" />
        </mxCell>
        <mxCell id="jBbVbqIC1WBpsB8egaU1-12" value="" style="html=1;points=[[0,0,0,0,5],[0,1,0,0,-5],[1,0,0,0,5],[1,1,0,0,-5]];perimeter=orthogonalPerimeter;outlineConnect=0;targetShapes=umlLifeline;portConstraint=eastwest;newEdgeStyle={&quot;curved&quot;:0,&quot;rounded&quot;:0};" parent="jBbVbqIC1WBpsB8egaU1-2" vertex="1">
          <mxGeometry x="65" y="120" width="10" height="20" as="geometry" />
        </mxCell>
        <mxCell id="jBbVbqIC1WBpsB8egaU1-4" value="B:Booking" style="shape=umlLifeline;perimeter=lifelinePerimeter;whiteSpace=wrap;html=1;container=1;dropTarget=0;collapsible=0;recursiveResize=0;outlineConnect=0;portConstraint=eastwest;newEdgeStyle={&quot;edgeStyle&quot;:&quot;elbowEdgeStyle&quot;,&quot;elbow&quot;:&quot;vertical&quot;,&quot;curved&quot;:0,&quot;rounded&quot;:0};" parent="1" vertex="1">
          <mxGeometry x="370" y="40" width="130" height="560" as="geometry" />
        </mxCell>
        <mxCell id="jBbVbqIC1WBpsB8egaU1-19" value="" style="html=1;points=[[0,0,0,0,5],[0,1,0,0,-5],[1,0,0,0,5],[1,1,0,0,-5]];perimeter=orthogonalPerimeter;outlineConnect=0;targetShapes=umlLifeline;portConstraint=eastwest;newEdgeStyle={&quot;curved&quot;:0,&quot;rounded&quot;:0};" parent="jBbVbqIC1WBpsB8egaU1-4" vertex="1">
          <mxGeometry x="60" y="70" width="10" height="130" as="geometry" />
        </mxCell>
        <mxCell id="SCxAjAZ50AFIW_SUQDBU-1" value="" style="html=1;points=[[0,0,0,0,5],[0,1,0,0,-5],[1,0,0,0,5],[1,1,0,0,-5]];perimeter=orthogonalPerimeter;outlineConnect=0;targetShapes=umlLifeline;portConstraint=eastwest;newEdgeStyle={&quot;curved&quot;:0,&quot;rounded&quot;:0};" vertex="1" parent="jBbVbqIC1WBpsB8egaU1-4">
          <mxGeometry x="60" y="250" width="10" height="80" as="geometry" />
        </mxCell>
        <mxCell id="jBbVbqIC1WBpsB8egaU1-5" value="O:Operator" style="shape=umlLifeline;perimeter=lifelinePerimeter;whiteSpace=wrap;html=1;container=1;dropTarget=0;collapsible=0;recursiveResize=0;outlineConnect=0;portConstraint=eastwest;newEdgeStyle={&quot;edgeStyle&quot;:&quot;elbowEdgeStyle&quot;,&quot;elbow&quot;:&quot;vertical&quot;,&quot;curved&quot;:0,&quot;rounded&quot;:0};" parent="1" vertex="1">
          <mxGeometry x="550" y="40" width="140" height="560" as="geometry" />
        </mxCell>
        <mxCell id="SCxAjAZ50AFIW_SUQDBU-6" value="" style="html=1;points=[[0,0,0,0,5],[0,1,0,0,-5],[1,0,0,0,5],[1,1,0,0,-5]];perimeter=orthogonalPerimeter;outlineConnect=0;targetShapes=umlLifeline;portConstraint=eastwest;newEdgeStyle={&quot;curved&quot;:0,&quot;rounded&quot;:0};" vertex="1" parent="jBbVbqIC1WBpsB8egaU1-5">
          <mxGeometry x="65" y="160" width="10" height="290" as="geometry" />
        </mxCell>
        <mxCell id="jBbVbqIC1WBpsB8egaU1-6" value="D:Driver" style="shape=umlLifeline;perimeter=lifelinePerimeter;whiteSpace=wrap;html=1;container=1;dropTarget=0;collapsible=0;recursiveResize=0;outlineConnect=0;portConstraint=eastwest;newEdgeStyle={&quot;edgeStyle&quot;:&quot;elbowEdgeStyle&quot;,&quot;elbow&quot;:&quot;vertical&quot;,&quot;curved&quot;:0,&quot;rounded&quot;:0};" parent="1" vertex="1">
          <mxGeometry x="730" y="40" width="160" height="560" as="geometry" />
        </mxCell>
        <mxCell id="SCxAjAZ50AFIW_SUQDBU-9" value="" style="html=1;points=[[0,0,0,0,5],[0,1,0,0,-5],[1,0,0,0,5],[1,1,0,0,-5]];perimeter=orthogonalPerimeter;outlineConnect=0;targetShapes=umlLifeline;portConstraint=eastwest;newEdgeStyle={&quot;curved&quot;:0,&quot;rounded&quot;:0};" vertex="1" parent="jBbVbqIC1WBpsB8egaU1-6">
          <mxGeometry x="75" y="58" width="10" height="462" as="geometry" />
        </mxCell>
        <mxCell id="jBbVbqIC1WBpsB8egaU1-9" value="" style="html=1;verticalAlign=bottom;endArrow=block;curved=0;rounded=0;" parent="1" edge="1">
          <mxGeometry width="80" relative="1" as="geometry">
            <mxPoint x="85" y="120" as="sourcePoint" />
            <mxPoint x="269.5" y="120" as="targetPoint" />
          </mxGeometry>
        </mxCell>
        <mxCell id="jBbVbqIC1WBpsB8egaU1-10" value="Login" style="text;html=1;align=center;verticalAlign=middle;resizable=0;points=[];autosize=1;strokeColor=none;fillColor=none;" parent="1" vertex="1">
          <mxGeometry x="145" y="88" width="50" height="30" as="geometry" />
        </mxCell>
        <mxCell id="jBbVbqIC1WBpsB8egaU1-13" value="Successfull login" style="html=1;verticalAlign=bottom;endArrow=open;dashed=1;endSize=8;curved=0;rounded=0;" parent="1" target="jBbVbqIC1WBpsB8egaU1-7" edge="1">
          <mxGeometry relative="1" as="geometry">
            <mxPoint x="260" y="151" as="sourcePoint" />
            <mxPoint x="90" y="151" as="targetPoint" />
          </mxGeometry>
        </mxCell>
        <mxCell id="jBbVbqIC1WBpsB8egaU1-15" value="" style="edgeStyle=elbowEdgeStyle;fontSize=12;html=1;endArrow=blockThin;endFill=1;rounded=0;" parent="1" edge="1">
          <mxGeometry width="160" relative="1" as="geometry">
            <mxPoint x="280" y="170" as="sourcePoint" />
            <mxPoint x="430" y="170" as="targetPoint" />
          </mxGeometry>
        </mxCell>
        <mxCell id="jBbVbqIC1WBpsB8egaU1-16" value="Window open" style="text;html=1;align=center;verticalAlign=middle;resizable=0;points=[];autosize=1;strokeColor=none;fillColor=none;" parent="1" vertex="1">
          <mxGeometry x="290" y="148" width="100" height="30" as="geometry" />
        </mxCell>
        <mxCell id="jBbVbqIC1WBpsB8egaU1-17" value="request for taxi" style="html=1;verticalAlign=bottom;endArrow=block;curved=0;rounded=0;" parent="1" target="jBbVbqIC1WBpsB8egaU1-4" edge="1">
          <mxGeometry width="80" relative="1" as="geometry">
            <mxPoint x="85" y="220" as="sourcePoint" />
            <mxPoint x="400" y="220" as="targetPoint" />
          </mxGeometry>
        </mxCell>
        <mxCell id="SCxAjAZ50AFIW_SUQDBU-5" value="Booking Confirm" style="html=1;verticalAlign=bottom;endArrow=open;dashed=1;endSize=8;curved=0;rounded=0;" edge="1" parent="1" target="jBbVbqIC1WBpsB8egaU1-7">
          <mxGeometry relative="1" as="geometry">
            <mxPoint x="430" y="310" as="sourcePoint" />
            <mxPoint x="90" y="310" as="targetPoint" />
          </mxGeometry>
        </mxCell>
        <mxCell id="SCxAjAZ50AFIW_SUQDBU-7" value="Contact nearby driver" style="html=1;verticalAlign=bottom;endArrow=block;curved=0;rounded=0;" edge="1" parent="1" target="jBbVbqIC1WBpsB8egaU1-6">
          <mxGeometry width="80" relative="1" as="geometry">
            <mxPoint x="620" y="240" as="sourcePoint" />
            <mxPoint x="799.5" y="240" as="targetPoint" />
            <Array as="points">
              <mxPoint x="670" y="240" />
            </Array>
          </mxGeometry>
        </mxCell>
        <mxCell id="SCxAjAZ50AFIW_SUQDBU-10" value="Assign Driver" style="html=1;verticalAlign=bottom;endArrow=open;dashed=1;endSize=8;curved=0;rounded=0;" edge="1" parent="1">
          <mxGeometry relative="1" as="geometry">
            <mxPoint x="809.5" y="350" as="sourcePoint" />
            <mxPoint x="440" y="350" as="targetPoint" />
          </mxGeometry>
        </mxCell>
        <mxCell id="SCxAjAZ50AFIW_SUQDBU-11" value="Pickup Customer" style="html=1;verticalAlign=bottom;endArrow=open;dashed=1;endSize=8;curved=0;rounded=0;" edge="1" parent="1" source="jBbVbqIC1WBpsB8egaU1-6" target="jBbVbqIC1WBpsB8egaU1-7">
          <mxGeometry relative="1" as="geometry">
            <mxPoint x="570" y="430" as="sourcePoint" />
            <mxPoint x="90" y="410" as="targetPoint" />
            <Array as="points">
              <mxPoint x="540" y="410" />
            </Array>
          </mxGeometry>
        </mxCell>
        <mxCell id="SCxAjAZ50AFIW_SUQDBU-12" value="Share Location With Driver" style="html=1;verticalAlign=bottom;endArrow=open;dashed=1;endSize=8;curved=0;rounded=0;" edge="1" parent="1">
          <mxGeometry relative="1" as="geometry">
            <mxPoint x="810" y="440" as="sourcePoint" />
            <mxPoint x="80" y="440" as="targetPoint" />
            <Array as="points">
              <mxPoint x="540" y="440" />
            </Array>
          </mxGeometry>
        </mxCell>
        <mxCell id="SCxAjAZ50AFIW_SUQDBU-15" value="Payment" style="html=1;verticalAlign=bottom;endArrow=block;curved=0;rounded=0;exitX=1;exitY=1;exitDx=0;exitDy=-5;exitPerimeter=0;" edge="1" parent="1" source="jBbVbqIC1WBpsB8egaU1-7" target="jBbVbqIC1WBpsB8egaU1-6">
          <mxGeometry width="80" relative="1" as="geometry">
            <mxPoint x="500" y="510" as="sourcePoint" />
            <mxPoint x="580" y="510" as="targetPoint" />
          </mxGeometry>
        </mxCell>
        <mxCell id="SCxAjAZ50AFIW_SUQDBU-17" value="Reject if driver not available&amp;nbsp;" style="html=1;verticalAlign=bottom;endArrow=open;dashed=1;endSize=8;curved=0;rounded=0;" edge="1" parent="1">
          <mxGeometry relative="1" as="geometry">
            <mxPoint x="619.5" y="470" as="sourcePoint" />
            <mxPoint x="79.5" y="470" as="targetPoint" />
          </mxGeometry>
        </mxCell>
        <mxCell id="SCxAjAZ50AFIW_SUQDBU-20" value="" style="shape=umlDestroy;whiteSpace=wrap;html=1;strokeWidth=3;targetShapes=umlLifeline;" vertex="1" parent="1">
          <mxGeometry x="65" y="600" width="30" height="30" as="geometry" />
        </mxCell>
        <mxCell id="SCxAjAZ50AFIW_SUQDBU-21" value="" style="shape=umlDestroy;whiteSpace=wrap;html=1;strokeWidth=3;targetShapes=umlLifeline;" vertex="1" parent="1">
          <mxGeometry x="420" y="600" width="30" height="30" as="geometry" />
        </mxCell>
        <mxCell id="SCxAjAZ50AFIW_SUQDBU-22" value="" style="shape=umlDestroy;whiteSpace=wrap;html=1;strokeWidth=3;targetShapes=umlLifeline;" vertex="1" parent="1">
          <mxGeometry x="255" y="600" width="30" height="30" as="geometry" />
        </mxCell>
        <mxCell id="SCxAjAZ50AFIW_SUQDBU-23" value="" style="shape=umlDestroy;whiteSpace=wrap;html=1;strokeWidth=3;targetShapes=umlLifeline;" vertex="1" parent="1">
          <mxGeometry x="605" y="600" width="30" height="30" as="geometry" />
        </mxCell>
        <mxCell id="SCxAjAZ50AFIW_SUQDBU-24" value="" style="shape=umlDestroy;whiteSpace=wrap;html=1;strokeWidth=3;targetShapes=umlLifeline;" vertex="1" parent="1">
          <mxGeometry x="795" y="600" width="30" height="30" as="geometry" />
        </mxCell>
      </root>
    </mxGraphModel>
  </diagram>
</mxfile>
